<svg xmlns="http://www.w3.org/2000/svg" viewBox="0 0 32 32">
  <rect width="32" height="32" fill="#0A1628"/>
  <g transform="translate(8.3807 23.4965) scale(0.020998 -0.020998)">
    <path fill="#C8965A" d="M1.7926970430390403 0V10H36.170788172156165Q56.82626538987688 10 70.92991686835737 17.0Q85.03356834683784 24 95.80948121645795 40.55182573924024Q106.58539408607808 57.10365147848048 116.58539408607808 85.7591286962012L340.41165947595493 714H412.4758497316637L651.3751446911501 71.51531095443545Q660.2714932126697 48.378091129117124 669.3919288645691 34.861306955698204Q678.5123645164684 21.34452278227928 690.1328001683678 15.67226139113964Q701.7532358202673 10 717.9941071240661 10H726.5123645164684V0H426.8627801746817V10H463.7561822582342Q495.03356834683785 10 509.5686099126592 18.327738608860358Q524.1036514784805 26.65547721772072 524.1036514784805 46.96643165316216Q524.1036514784805 52.96643165316216 522.8795643481006 59.91460591392192Q521.6554772177208 66.86278017468167 519.9313900873408 75.53504156582132Q518.2073029569609 84.20730295696096 514.2073029569609 94.10365147848049L455 259.89634852151954H189.82626538987688L133.92991686835737 103.79269704303904Q130.03356834683785 93.55182573924024 127.36130695569821 83.98321582658107Q124.68904556455855 74.41460591392192 123.2408713037988 66.79417026202252Q121.79269704303904 59.17373461012312 121.79269704303904 52.2773860886036Q121.79269704303904 28.86278017468168 140.41460591392192 19.43139008734084Q159.0365147848048 10 199.4876354835315 10H244V0ZM193.27443965063665 269.89634852151954H451.44817426075974L383.37809112911714 461.31095443544143Q372.6189624329159 490.82921182784384 361.84304956329584 522.9496474797432Q351.0671366936757 555.0700831316426 341.5671366936757 586.2591286962012Q332.0671366936757 617.4481742607597 324.9634852151952 643.5518257392403Q318.41165947595493 623.3445227822792 311.51531095443545 602.8277386088603Q304.6189624329159 582.3109544354414 297.2744396506366 561.1737346101231Q289.92991686835734 540.0365147848048 281.9817426075976 518.4160791329055Q274.03356834683785 496.795643481006 265.92991686835734 473.82921182784384Z"/>
  </g>
</svg>
